<?xml version="1.0" encoding="utf-8"?>
<!-- Generator: Adobe Illustrator 17.0.0, SVG Export Plug-In . SVG Version: 6.00 Build 0)  -->
<!DOCTYPE svg PUBLIC "-//W3C//DTD SVG 1.1//EN" "http://www.w3.org/Graphics/SVG/1.1/DTD/svg11.dtd">
<svg version="1.1" id="Layer_1" xmlns="http://www.w3.org/2000/svg" xmlns:xlink="http://www.w3.org/1999/xlink" x="0px" y="0px"
	 width="250px" height="150px" viewBox="0 0 250 150" enable-background="new 0 0 250 150" xml:space="preserve">
<circle fill="none" cx="186.028" cy="54.134" r="15.31"/>
<text transform="matrix(0.805 -0.5933 0.5933 0.805 174.1624 43.8555)"><tspan x="0" y="0" fill="#FFFFFF" font-family="'HelveticaNeue'" font-size="11.6648">p</tspan><tspan x="6.242" y="-0.068" fill="#FFFFFF" font-family="'HelveticaNeue'" font-size="11.6648" rotate="21.883">e</tspan><tspan x="11.504" y="1.916" fill="#FFFFFF" font-family="'HelveticaNeue'" font-size="11.6648" rotate="42.534">a</tspan><tspan x="15.733" y="5.642" fill="#FFFFFF" font-family="'HelveticaNeue'" font-size="11.6648" rotate="63.357">c</tspan><tspan x="18.356" y="10.614" fill="#FFFFFF" font-family="'HelveticaNeue'" font-size="11.6648" rotate="83.998">e</tspan><tspan x="18.822" y="16.312" fill="#FFFFFF" font-family="'HelveticaNeue'" font-size="11.6648" rotate="99.768"> </tspan><tspan x="18.431" y="19.114" fill="#FFFFFF" font-family="'HelveticaNeue'" font-size="11.6648" rotate="111.936">•</tspan><tspan x="17.058" y="22.536" fill="#FFFFFF" font-family="'HelveticaNeue'" font-size="11.6648" rotate="124.211"> </tspan><tspan x="15.433" y="24.942" fill="#FFFFFF" font-family="'HelveticaNeue'" font-size="11.6648" rotate="133.622">l</tspan><tspan x="14.209" y="26.719" fill="#FFFFFF" font-family="'HelveticaNeue'" font-size="11.6648" rotate="149.062">o</tspan><tspan x="9.046" y="29.859" fill="#FFFFFF" font-family="'HelveticaNeue'" font-size="11.6648" rotate="169.737">v</tspan><tspan x="3.945" y="30.937" fill="#FFFFFF" font-family="'HelveticaNeue'" font-size="11.6648" rotate="-170.229">e</tspan><tspan x="-1.667" y="29.842" fill="#FFFFFF" font-family="'HelveticaNeue'" font-size="11.6648" rotate="-154.228"> </tspan><tspan x="-4.279" y="28.684" fill="#FFFFFF" font-family="'HelveticaNeue'" font-size="11.6648" rotate="-142.418">•</tspan><tspan x="-7.194" y="26.436" fill="#FFFFFF" font-family="'HelveticaNeue'" font-size="11.6648" rotate="-130.254"> </tspan><tspan x="-9.191" y="24.541" fill="#FFFFFF" font-family="'HelveticaNeue'" font-size="11.6648" rotate="-114.117">u</tspan><tspan x="-11.687" y="19.263" fill="#FFFFFF" font-family="'HelveticaNeue'" font-size="11.6648" rotate="-92.732">n</tspan><tspan x="-11.785" y="13.314" fill="#FFFFFF" font-family="'HelveticaNeue'" font-size="11.6648" rotate="-77.657">i</tspan><tspan x="-11.379" y="11.089" fill="#FFFFFF" font-family="'HelveticaNeue'" font-size="11.6648" rotate="-67.23">t</tspan><tspan x="-10.393" y="8.073" fill="#FFFFFF" font-family="'HelveticaNeue'" font-size="11.6648" rotate="-50.908">e</tspan><tspan x="-6.688" y="3.723" fill="#FFFFFF" font-family="'HelveticaNeue'" font-size="11.6648" rotate="-35.097"> </tspan><tspan x="-4.419" y="2.021" fill="#FFFFFF" font-family="'HelveticaNeue'" font-size="11.6648" rotate="-22.983">•</tspan></text>
<g>
	<path fill="#FFFFFF" d="M14.721,107.095c-1.549,1.322-3.436,2.096-5.664,2.322c-1.208,0.113-2.341,0.028-3.398-0.255
		c-1.057-0.283-1.973-0.755-2.747-1.416c-0.774-0.66-1.369-1.481-1.784-2.463c-0.416-0.981-0.547-2.114-0.396-3.398
		c0.113-1.133,0.434-2.096,0.962-2.889c0.528-0.792,1.17-1.48,1.926-2.066c0.755-0.585,1.604-1.076,2.548-1.473
		c0.943-0.396,1.906-0.745,2.888-1.048c1.623-0.528,2.869-1.028,3.738-1.501c0.868-0.472,1.51-0.915,1.926-1.33
		c-0.526,0.565-1.108,1.104-1.746,1.613c-0.638,0.51-1.219,1.114-1.745,1.812c-0.525,0.699-0.966,1.586-1.323,2.662
		s-0.534,2.482-0.534,4.219c0,1.436,0.188,2.577,0.562,3.427c0.375,0.849,0.834,1.472,1.379,1.868
		c0.544,0.396,1.126,0.576,1.746,0.538C13.679,107.681,14.232,107.473,14.721,107.095z M11.614,81.61
		c-0.815,0.076-1.477,0.331-1.987,0.765c-0.509,0.435-0.821,0.897-0.934,1.388c-0.113,0.529,0,0.972,0.34,1.33
		c0.34,0.359,0.66,0.689,0.962,0.991c0.415,0.416,0.736,0.888,0.963,1.416c0.227,0.529,0.34,1.114,0.34,1.756
		c0,1.246-0.435,2.304-1.303,3.171c-0.869,0.869-1.925,1.303-3.171,1.303c-1.246,0-2.303-0.434-3.171-1.303
		C2.784,91.56,2.35,90.502,2.35,89.256c0-0.943,0.235-1.85,0.706-2.719c0.471-0.868,1.12-1.642,1.948-2.321
		c0.829-0.68,1.808-1.246,2.938-1.699C9.071,82.063,10.295,81.762,11.614,81.61z M24.153,105.227v0.396v1.812v0.566
		c0,0.416,0.132,0.756,0.396,1.02c0.264,0.265,0.604,0.396,1.02,0.396h-6.312c-1.538,0-2.598-0.377-3.179-1.133
		c-0.583-0.755-0.873-2.039-0.873-3.851v-2.152V88.066c0-1.736-0.135-3.237-0.403-4.502s-0.785-1.935-1.551-2.011
		c1.506,0,2.917,0.198,4.236,0.595c1.318,0.396,2.467,0.944,3.446,1.643c0.979,0.698,1.76,1.52,2.344,2.463
		c0.584,0.944,0.876,1.945,0.876,3.002V105.227z"/>
	<path fill="#FFFFFF" d="M41.879,99.223c0.15,0.416,0.434,0.623,0.849,0.623c0.453,0,0.736-0.188,0.85-0.566l-3.398,10.194h-3.398
		l-3.625-10.646l-1.473-4.418l-4.021-11.836c-0.265-0.68-0.756-1.02-1.473-1.02h0.85h9.174h0.906c-0.604,0-0.906,0.303-0.906,0.906
		c0,0.076,0.009,0.133,0.028,0.17c0.019,0.038,0.028,0.076,0.028,0.113l4.021,11.779l0.793,2.379L41.879,99.223z M55.018,99.223
		c0.15,0.416,0.434,0.623,0.85,0.623c0.377,0,0.66-0.188,0.849-0.566l-3.398,10.194h-3.398l-3.625-10.646l-1.472-4.418
		l-4.021-11.836c-0.265-0.68-0.756-1.02-1.473-1.02h0.85h9.118h0.963c-0.604,0-0.906,0.303-0.906,0.906
		c0,0.151,0.019,0.246,0.057,0.283l3.964,11.779l0.85,2.379L55.018,99.223z M60.964,86.48c0.037-0.15,0.057-0.302,0.057-0.453
		c0-0.15,0-0.302,0-0.453c0-1.094-0.416-2.038-1.246-2.831c-0.831-0.793-1.793-1.189-2.888-1.189h10.137
		c-1.435,0-2.7,0.491-3.794,1.473C62.134,84.009,61.379,85.159,60.964,86.48z"/>
	<path fill="#FFFFFF" d="M79.735,107.095c-1.549,1.322-3.436,2.096-5.664,2.322c-1.208,0.113-2.341,0.028-3.398-0.255
		c-1.057-0.283-1.973-0.755-2.747-1.416c-0.774-0.66-1.369-1.481-1.784-2.463c-0.416-0.981-0.547-2.114-0.396-3.398
		c0.113-1.133,0.434-2.096,0.962-2.889c0.528-0.792,1.17-1.48,1.926-2.066c0.755-0.585,1.604-1.076,2.548-1.473
		c0.943-0.396,1.906-0.745,2.888-1.048c1.623-0.528,2.869-1.028,3.738-1.501c0.868-0.472,1.51-0.915,1.926-1.33
		c-0.526,0.565-1.108,1.104-1.746,1.613c-0.638,0.51-1.219,1.114-1.745,1.812c-0.525,0.699-0.966,1.586-1.323,2.662
		s-0.534,2.482-0.534,4.219c0,1.436,0.188,2.577,0.562,3.427c0.375,0.849,0.834,1.472,1.379,1.868
		c0.544,0.396,1.126,0.576,1.746,0.538C78.693,107.681,79.246,107.473,79.735,107.095z M76.628,81.61
		c-0.815,0.076-1.477,0.331-1.987,0.765c-0.509,0.435-0.821,0.897-0.934,1.388c-0.113,0.529,0,0.972,0.34,1.33
		c0.34,0.359,0.66,0.689,0.962,0.991c0.415,0.416,0.736,0.888,0.963,1.416c0.227,0.529,0.34,1.114,0.34,1.756
		c0,1.246-0.435,2.304-1.303,3.171c-0.869,0.869-1.925,1.303-3.171,1.303c-1.246,0-2.303-0.434-3.171-1.303
		c-0.869-0.867-1.302-1.925-1.302-3.171c0-0.943,0.235-1.85,0.706-2.719c0.471-0.868,1.12-1.642,1.948-2.321
		c0.829-0.68,1.808-1.246,2.938-1.699C74.085,82.063,75.31,81.762,76.628,81.61z M89.167,105.227v0.396v1.812v0.566
		c0,0.416,0.132,0.756,0.396,1.02c0.264,0.265,0.604,0.396,1.02,0.396h-6.312c-1.538,0-2.598-0.377-3.179-1.133
		c-0.583-0.755-0.873-2.039-0.873-3.851v-2.152V88.066c0-1.736-0.135-3.237-0.403-4.502s-0.785-1.935-1.551-2.011
		c1.506,0,2.917,0.198,4.236,0.595c1.318,0.396,2.467,0.944,3.446,1.643c0.979,0.698,1.76,1.52,2.344,2.463
		c0.584,0.944,0.876,1.945,0.876,3.002V105.227z"/>
	<path fill="#FFFFFF" d="M103.835,84.669v23.389c0,0.416,0.132,0.756,0.396,1.02c0.264,0.265,0.604,0.396,1.02,0.396h-1.246h-6.642
		h-2.646h-1.246c0.415,0,0.755-0.132,1.02-0.396c0.264-0.264,0.396-0.604,0.396-1.02V84.669v-6.287v-7.135
		c0-0.415-0.133-0.755-0.396-1.02c-0.265-0.264-0.604-0.396-1.02-0.396h6.312c1.5,0,2.551,0.378,3.151,1.133
		c0.6,0.756,0.901,2.039,0.901,3.851v3.454V84.669z M107.969,83.593c0.642-0.453,1.34-0.85,2.095-1.189
		c0.755-0.34,1.566-0.585,2.436-0.736c0.906-0.15,1.792-0.132,2.662,0.057c0.868,0.189,1.632,0.529,2.293,1.02
		c0.66,0.491,1.18,1.152,1.558,1.982c0.377,0.83,0.51,1.831,0.396,3.001c-0.076,1.133-0.368,2.247-0.878,3.342
		s-1.067,2.104-1.671,3.029c-0.604,0.926-1.161,1.699-1.67,2.322s-0.821,1.011-0.935,1.161c-0.038,0.076-0.076,0.18-0.113,0.312
		c-0.038,0.133,0,0.293,0.113,0.481c0.34,0.566,0.83,1.368,1.473,2.406c0.642,1.039,1.302,2.105,1.982,3.2
		c0.68,1.096,1.312,2.104,1.897,3.029c0.584,0.926,0.971,1.558,1.161,1.897c0.227,0.378,0.604,0.566,1.133,0.566h-1.02h-7.532
		c-0.755,0-1.407-0.065-1.954-0.198c-0.548-0.132-0.916-0.425-1.104-0.878c-0.416-0.793-0.859-1.633-1.331-2.52
		c-0.473-0.887-0.926-1.756-1.359-2.605c-0.435-0.85-0.85-1.651-1.246-2.407c-0.396-0.755-0.727-1.396-0.991-1.925
		c-0.151-0.302-0.198-0.557-0.142-0.765c0.057-0.207,0.235-0.481,0.538-0.821c0.377-0.49,0.858-1.161,1.444-2.011
		c0.585-0.85,1.18-1.756,1.784-2.719c0.604-0.962,1.151-1.915,1.642-2.859c0.49-0.943,0.83-1.774,1.02-2.492
		c0.227-0.981,0.264-1.803,0.113-2.463c-0.151-0.66-0.416-1.142-0.793-1.444c-0.378-0.302-0.841-0.434-1.388-0.396
		C109.036,83.008,108.498,83.216,107.969,83.593z"/>
	<path fill="#FFFFFF" d="M122.24,95.485c0-1.926,0.291-3.737,0.875-5.437s1.431-3.172,2.542-4.418
		c1.112-1.245,2.467-2.236,4.069-2.973c1.601-0.736,3.399-1.104,5.396-1.104h0.282c-1.517,0.113-2.599,0.944-3.245,2.492
		c-0.648,1.548-0.971,4.153-0.971,7.815v3.624v3.681c0,3.663,0.322,6.269,0.969,7.815c0.646,1.549,1.729,2.379,3.247,2.492h-0.283
		c-1.996,0-3.795-0.368-5.396-1.104s-2.956-1.736-4.068-3.001c-1.111-1.265-1.958-2.747-2.542-4.446S122.24,97.411,122.24,95.485z
		 M136.478,81.61h0.113c1.887,0.189,3.558,0.718,5.012,1.586c1.453,0.869,2.671,1.963,3.652,3.284
		c0.793,1.058,1.293,2.124,1.501,3.2c0.207,1.076,0.198,2.058-0.028,2.944c-0.227,0.888-0.633,1.614-1.218,2.181
		c-0.586,0.566-1.293,0.85-2.123,0.85h-6.796c0.786,0,1.479-0.49,2.079-1.473c0.6-0.981,0.9-2.378,0.9-4.19
		c0-0.981-0.075-1.944-0.226-2.889c-0.15-0.943-0.356-1.803-0.618-2.576c-0.263-0.773-0.591-1.425-0.984-1.954
		C137.349,82.045,136.927,81.724,136.478,81.61z M136.761,109.417c0.815-0.113,1.479-0.377,1.988-0.793
		c0.51-0.415,0.821-0.868,0.935-1.359c0.113-0.528,0.009-0.972-0.312-1.33c-0.321-0.358-0.633-0.688-0.935-0.991
		c-0.906-0.906-1.359-1.982-1.359-3.229c0-1.208,0.44-2.256,1.322-3.143c0.881-0.887,1.941-1.331,3.18-1.331
		c1.2,0,2.241,0.444,3.123,1.331c0.881,0.887,1.323,1.935,1.323,3.143c0,0.982-0.235,1.907-0.706,2.775
		c-0.472,0.869-1.122,1.642-1.95,2.321s-1.808,1.246-2.938,1.699S138.079,109.267,136.761,109.417z"/>
	<path fill="#FFFFFF" d="M160.693,108.058c0,0.416,0.132,0.756,0.396,1.02c0.264,0.265,0.604,0.396,1.02,0.396h-1.246h-6.642h-2.646
		h-1.246c0.415,0,0.755-0.132,1.02-0.396c0.264-0.264,0.396-0.604,0.396-1.02V82.97c0-0.415-0.133-0.755-0.396-1.02
		c-0.265-0.264-0.604-0.396-1.02-0.396h6.312c1.501,0,2.552,0.378,3.151,1.133c0.6,0.756,0.901,2.039,0.901,3.851V108.058z
		 M160.919,83.819c0.189-0.15,0.388-0.273,0.597-0.368c0.209-0.094,0.408-0.198,0.598-0.312c2.312-1.057,4.452-1.586,6.424-1.586
		c0.947,0,1.856,0.133,2.729,0.396c0.871,0.265,1.62,0.689,2.246,1.274c0.624,0.586,1.127,1.341,1.506,2.265
		c0.379,0.926,0.568,2.049,0.568,3.37v15.688v3.511c0,0.416,0.132,0.756,0.396,1.02c0.264,0.265,0.604,0.396,1.02,0.396h-0.736
		h-4.757h-6.343c0.415,0,0.765-0.132,1.048-0.396c0.283-0.264,0.425-0.604,0.425-1.02v-4.36v-16.48c0-1.623-0.306-2.728-0.915-3.312
		c-0.61-0.585-1.316-0.878-2.117-0.878C162.692,83.026,161.796,83.291,160.919,83.819z"/>
	<path fill="#FFFFFF" d="M190.199,101.262v6.796c0,0.416,0.132,0.756,0.396,1.02c0.264,0.265,0.604,0.396,1.02,0.396h-11.779
		c0.415,0,0.755-0.132,1.02-0.396c0.264-0.264,0.396-0.604,0.396-1.02v-7.136V90.049V82.97c0-0.415-0.133-0.755-0.396-1.02
		c-0.265-0.264-0.604-0.396-1.02-0.396h11.779c-0.416,0-0.756,0.133-1.02,0.396c-0.264,0.265-0.396,0.604-0.396,1.02v6.796V101.262z
		"/>
	<path fill="#FFFFFF" d="M204.866,108.058c0,0.416,0.132,0.756,0.396,1.02c0.264,0.265,0.604,0.396,1.02,0.396h-1.246h-6.642h-2.646
		h-1.246c0.415,0,0.755-0.132,1.02-0.396c0.264-0.264,0.396-0.604,0.396-1.02V82.97c0-0.415-0.133-0.755-0.396-1.02
		c-0.265-0.264-0.604-0.396-1.02-0.396h6.312c1.501,0,2.552,0.378,3.151,1.133c0.6,0.756,0.901,2.039,0.901,3.851V108.058z
		 M205.092,83.819c0.189-0.15,0.388-0.273,0.597-0.368c0.209-0.094,0.408-0.198,0.598-0.312c2.312-1.057,4.452-1.586,6.424-1.586
		c0.947,0,1.856,0.133,2.729,0.396c0.871,0.265,1.62,0.689,2.246,1.274c0.624,0.586,1.127,1.341,1.506,2.265
		c0.379,0.926,0.568,2.049,0.568,3.37v15.688v3.511c0,0.416,0.132,0.756,0.396,1.02c0.264,0.265,0.604,0.396,1.02,0.396h-0.736
		h-4.757h-6.343c0.415,0,0.765-0.132,1.048-0.396c0.283-0.264,0.425-0.604,0.425-1.02v-4.36v-16.48c0-1.623-0.306-2.728-0.915-3.312
		c-0.61-0.585-1.316-0.878-2.117-0.878C206.865,83.026,205.969,83.291,205.092,83.819z"/>
	<path fill="#FFFFFF" d="M237.826,124.708c1.359-0.151,2.521-0.491,3.482-1.02c0.963-0.529,1.746-1.152,2.351-1.869
		c0.604-0.718,1.038-1.511,1.303-2.378c0.264-0.869,0.396-1.719,0.396-2.549c0-1.246-0.388-2.322-1.161-3.229
		c-0.774-0.905-1.747-1.51-2.917-1.812c-1.132-0.303-2.35-0.538-3.652-0.708s-2.615-0.321-3.937-0.453
		c-1.321-0.133-2.576-0.293-3.766-0.481c-1.189-0.189-2.237-0.473-3.144-0.85c-1.132-0.528-2.066-1.303-2.803-2.322
		s-1.104-2.188-1.104-3.511c0-1.435,0.415-2.69,1.246-3.767c0.83-1.075,1.906-1.82,3.228-2.236
		c-0.566,0.303-0.906,0.699-1.019,1.189c-0.113,0.49,0.037,0.962,0.452,1.415c0.264,0.34,0.745,0.623,1.444,0.85
		c0.698,0.227,1.491,0.396,2.379,0.51c0.887,0.113,1.821,0.208,2.803,0.283c0.981,0.076,1.926,0.151,2.832,0.227
		c4.115,0.303,7.362,1.482,9.741,3.54c2.378,2.058,3.567,4.672,3.567,7.843c0,1.661-0.303,3.152-0.906,4.475
		c-0.604,1.321-1.435,2.463-2.491,3.426c-1.058,0.963-2.304,1.736-3.738,2.322C240.978,124.188,239.449,124.557,237.826,124.708z
		 M231.88,124.312c-2.644-0.643-4.806-1.747-6.484-3.313c-1.681-1.566-2.521-3.369-2.521-5.408c0-1.246,0.434-2.312,1.303-3.199
		c0.868-0.888,1.926-1.331,3.171-1.331c1.246,0,2.303,0.443,3.172,1.331c0.868,0.887,1.303,1.953,1.303,3.199
		c0,0.604-0.113,1.17-0.34,1.699c-0.227,0.528-0.548,1-0.963,1.416c-0.189,0.227-0.453,0.557-0.793,0.991
		c-0.34,0.434-0.51,0.934-0.51,1.5c0,0.717,0.255,1.368,0.765,1.954C230.492,123.735,231.124,124.122,231.88,124.312z
		 M233.013,93.276c0,2.039,0.245,3.663,0.735,4.871s1.246,1.85,2.266,1.925c-1.775-0.075-3.351-0.368-4.729-0.878
		c-1.379-0.509-2.549-1.179-3.512-2.01c-0.963-0.83-1.698-1.784-2.208-2.86s-0.765-2.237-0.765-3.482
		c0-1.246,0.255-2.416,0.765-3.512c0.51-1.095,1.245-2.058,2.208-2.888s2.133-1.501,3.512-2.011c1.378-0.51,2.953-0.802,4.729-0.878
		c-1.02,0.076-1.775,0.718-2.266,1.926s-0.735,2.831-0.735,4.87v2.492V93.276z M236.58,100.072c1.02-0.075,1.774-0.717,2.266-1.925
		c0.49-1.208,0.736-2.832,0.736-4.871v-2.435V88.35c0-2.039-0.246-3.662-0.736-4.87c-0.491-1.208-1.246-1.85-2.266-1.926
		c1.736,0.076,3.304,0.368,4.7,0.878s2.577,1.181,3.54,2.011s1.699,1.793,2.209,2.888c0.509,1.096,0.764,2.266,0.764,3.512
		c0,1.245-0.255,2.406-0.764,3.482c-0.51,1.076-1.246,2.03-2.209,2.86c-0.963,0.831-2.144,1.501-3.54,2.01
		C239.884,99.704,238.316,99.997,236.58,100.072z"/>
</g>
</svg>
