<?xml version="1.0" encoding="utf-8"?>
<!-- Generator: Adobe Illustrator 17.0.0, SVG Export Plug-In . SVG Version: 6.00 Build 0)  -->
<!DOCTYPE svg PUBLIC "-//W3C//DTD SVG 1.1//EN" "http://www.w3.org/Graphics/SVG/1.1/DTD/svg11.dtd">
<svg version="1.1" id="Layer_1" xmlns="http://www.w3.org/2000/svg" xmlns:xlink="http://www.w3.org/1999/xlink" x="0px" y="0px"
	 width="280px" height="180px" viewBox="0 0 280 180" enable-background="new 0 0 280 180" xml:space="preserve">
<g>
	<path fill="#FFFFFF" d="M17.169,99.867V84.708c0-0.896-0.287-1.629-0.856-2.2c-0.571-0.569-1.305-0.856-2.201-0.856h13.625
		c3.24,0,5.507,0.816,6.802,2.445c1.295,1.632,1.945,4.401,1.945,8.313v7.579v11.002v18.704c0,3.505,0.638,5.889,1.914,7.152
		c1.276,1.264,2.819,1.894,4.63,1.894c0.906,0,1.872-0.162,2.902-0.489c1.027-0.325,1.996-0.734,2.901-1.222
		c-0.409,0.244-0.837,0.489-1.284,0.734c-0.449,0.244-0.917,0.449-1.406,0.611c-2.365,1.142-4.728,2.017-7.09,2.628
		c-2.365,0.611-4.565,0.917-6.602,0.917c-2.12,0-4.095-0.285-5.929-0.856c-1.834-0.569-3.444-1.486-4.829-2.751
		c-1.386-1.263-2.487-2.913-3.301-4.951c-0.816-2.036-1.222-4.481-1.222-7.335v-16.87V99.867z M68.635,123.706v15.159
		c0,0.898,0.285,1.632,0.856,2.201c0.569,0.571,1.302,0.856,2.2,0.856H58c-3.261,0-5.522-0.813-6.785-2.445
		c-1.264-1.629-1.895-4.401-1.895-8.313v-7.579V99.867V84.708c0-0.896-0.306-1.629-0.917-2.2c-0.611-0.569-1.366-0.856-2.262-0.856
		h13.692c3.341,0,5.642,0.816,6.907,2.445c1.262,1.632,1.895,4.401,1.895,8.313v7.579V123.706z"/>
	<path fill="#FFFFFF" d="M100.175,138.864c0,0.898,0.285,1.632,0.856,2.201c0.569,0.571,1.303,0.856,2.201,0.856h-2.69H86.204
		h-5.711h-2.689c0.896,0,1.629-0.285,2.201-0.856c0.569-0.569,0.856-1.303,0.856-2.201V84.708c0-0.896-0.287-1.629-0.856-2.2
		c-0.571-0.569-1.305-0.856-2.201-0.856h13.625c3.24,0,5.507,0.816,6.802,2.445c1.295,1.632,1.945,4.401,1.945,8.313V138.864z
		 M100.664,86.542c0.409-0.325,0.837-0.59,1.288-0.794c0.45-0.203,0.88-0.428,1.289-0.673c4.989-2.281,9.612-3.423,13.868-3.423
		c2.044,0,4.007,0.287,5.89,0.856c1.881,0.571,3.498,1.488,4.849,2.751c1.348,1.264,2.433,2.894,3.25,4.89
		c0.818,1.998,1.229,4.422,1.229,7.274v33.863v7.579c0,0.898,0.284,1.632,0.856,2.201c0.569,0.571,1.303,0.856,2.201,0.856h-1.589
		h-10.269h-13.692c0.896,0,1.651-0.285,2.262-0.856c0.611-0.569,0.917-1.303,0.917-2.201v-9.413V93.877
		c0-3.503-0.659-5.887-1.975-7.151c-1.318-1.263-2.841-1.895-4.569-1.895C104.492,84.83,102.557,85.401,100.664,86.542z"/>
	<path fill="#FFFFFF" d="M163.866,124.194v14.67c0,0.898,0.284,1.632,0.856,2.201c0.569,0.571,1.303,0.856,2.201,0.856h-25.428
		c0.896,0,1.629-0.285,2.201-0.856c0.569-0.569,0.856-1.303,0.856-2.201v-15.404V99.989V84.708c0-0.896-0.287-1.629-0.856-2.2
		c-0.571-0.569-1.304-0.856-2.201-0.856h25.428c-0.898,0-1.632,0.287-2.201,0.856c-0.571,0.571-0.856,1.304-0.856,2.2v14.67V124.194
		z M161.011,59.219c-1.903-1.914-4.191-2.873-6.863-2.873c-2.592,0-4.841,0.959-6.743,2.873c-1.903,1.916-2.854,4.178-2.854,6.785
		c0,2.689,0.951,4.972,2.854,6.846c1.902,1.876,4.151,2.812,6.743,2.812c2.672,0,4.96-0.936,6.863-2.812
		c1.902-1.874,2.856-4.157,2.856-6.846C163.866,63.397,162.913,61.135,161.011,59.219z"/>
	<path fill="#FFFFFF" d="M206.04,136.664c-1.875,1.304-4.076,2.506-6.601,3.606c-2.527,1.101-5.167,1.651-7.921,1.651
		c-2.105,0-4.089-0.285-5.952-0.856c-1.865-0.569-3.484-1.486-4.86-2.751c-1.377-1.263-2.47-2.892-3.28-4.89
		c-0.809-1.996-1.215-4.42-1.215-7.274V92.288v-6.846c0-0.896-0.287-1.63-0.856-2.201c-0.571-0.569-1.304-0.856-2.201-0.856
		c2.361,0,4.815-0.386,7.368-1.162c2.552-0.774,4.88-1.813,6.986-3.117c2.104-1.303,3.908-2.812,5.406-4.523
		c1.497-1.712,2.369-3.503,2.613-5.379v13.447h7.824v0.734h-7.824v3.056v8.68v34.719c0,2.853,0.325,5.012,0.978,6.479
		c0.651,1.467,1.467,2.426,2.445,2.872c0.977,0.449,2.097,0.489,3.362,0.123C203.574,137.947,204.817,137.397,206.04,136.664z"/>
	<path fill="#FFFFFF" d="M244.792,144.488c0.08-0.083,0.123-0.287,0.123-0.611c0-1.305-0.653-1.956-1.956-1.956H232.2l-7.824-22.983
		l-3.179-9.535l-8.679-25.55c-0.57-1.467-1.63-2.201-3.179-2.201h1.834h19.804h1.956c-1.304,0-1.956,0.653-1.956,1.956
		c0,0.164,0.019,0.287,0.061,0.367c0.04,0.082,0.061,0.164,0.061,0.245l15.281,44.865c0.325,0.898,0.936,1.345,1.834,1.345
		c0.733,0,1.344-0.447,1.834-1.345L244.792,144.488z M228.533,174.44c-1.386,0.405-2.771,0.61-4.156,0.61
		c-2.038,0-3.973-0.487-5.807-1.46c-1.834-0.976-3.423-2.294-4.768-3.956c-1.344-1.666-2.403-3.593-3.178-5.782
		c-0.774-2.193-1.161-4.546-1.161-7.06c0-2.598,0.938-4.849,2.811-6.754c1.874-1.909,4.157-2.861,6.846-2.861
		c2.689,0,4.97,0.953,6.846,2.861c1.874,1.905,2.811,4.156,2.811,6.754c0,1.46-0.287,2.797-0.856,4.015
		c-0.571,1.217-1.344,2.271-2.322,3.165c-0.327,0.325-0.611,0.607-0.856,0.852c-0.245,0.243-0.489,0.528-0.734,0.852
		c-0.734,0.972-1.121,1.965-1.161,2.981c-0.042,1.012,0.122,1.966,0.489,2.86c0.367,0.892,0.896,1.622,1.589,2.191
		c0.692,0.567,1.446,0.852,2.262,0.852C227.758,174.561,228.207,174.521,228.533,174.44z M262.151,92.288
		c0.08-0.325,0.123-0.651,0.123-0.978c0-0.325,0-0.651,0-0.978c0-2.363-0.898-4.401-2.689-6.112
		c-1.794-1.712-3.872-2.568-6.235-2.568h21.882c-3.098,0-5.828,1.06-8.19,3.179C264.677,86.951,263.048,89.435,262.151,92.288z"/>
</g>
<circle fill="none" cx="155.03" cy="38.187" r="24.364"/>
<text transform="matrix(0.805 -0.5932 0.5932 0.805 136.1474 21.8311)"><tspan x="0" y="0" fill="#FFFFFF" font-family="'HelveticaNeue'" font-size="18.5631">p</tspan><tspan x="9.933" y="-0.109" fill="#FFFFFF" font-family="'HelveticaNeue'" font-size="18.5631" rotate="21.871">e</tspan><tspan x="18.305" y="3.051" fill="#FFFFFF" font-family="'HelveticaNeue'" font-size="18.5631" rotate="42.497">a</tspan><tspan x="25.015" y="8.947" fill="#FFFFFF" font-family="'HelveticaNeue'" font-size="18.5631" rotate="63.284">c</tspan><tspan x="29.205" y="16.855" fill="#FFFFFF" font-family="'HelveticaNeue'" font-size="18.5631" rotate="83.964">e</tspan><tspan x="29.957" y="25.918" fill="#FFFFFF" font-family="'HelveticaNeue'" font-size="18.5631" rotate="99.685"> </tspan><tspan x="29.327" y="30.415" fill="#FFFFFF" font-family="'HelveticaNeue'" font-size="18.5631" rotate="111.871">•</tspan><tspan x="27.164" y="35.829" fill="#FFFFFF" font-family="'HelveticaNeue'" font-size="18.5631" rotate="124.122"> </tspan><tspan x="24.572" y="39.673" fill="#FFFFFF" font-family="'HelveticaNeue'" font-size="18.5631" rotate="133.537">l</tspan><tspan x="22.64" y="42.494" fill="#FFFFFF" font-family="'HelveticaNeue'" font-size="18.5631" rotate="148.969">o</tspan><tspan x="14.432" y="47.504" fill="#FFFFFF" font-family="'HelveticaNeue'" font-size="18.5631" rotate="169.636">v</tspan><tspan x="6.319" y="49.228" fill="#FFFFFF" font-family="'HelveticaNeue'" font-size="18.5631" rotate="-170.353">e</tspan><tspan x="-2.608" y="47.491" fill="#FFFFFF" font-family="'HelveticaNeue'" font-size="18.5631" rotate="-154.6"> </tspan><tspan x="-6.755" y="45.675" fill="#FFFFFF" font-family="'HelveticaNeue'" font-size="18.5631" rotate="-142.566">•</tspan><tspan x="-11.394" y="42.123" fill="#FFFFFF" font-family="'HelveticaNeue'" font-size="18.5631" rotate="-130.392"> </tspan><tspan x="-14.578" y="39.114" fill="#FFFFFF" font-family="'HelveticaNeue'" font-size="18.5631" rotate="-114.301">u</tspan><tspan x="-18.579" y="30.728" fill="#FFFFFF" font-family="'HelveticaNeue'" font-size="18.5631" rotate="-92.888">n</tspan><tspan x="-18.763" y="21.263" fill="#FFFFFF" font-family="'HelveticaNeue'" font-size="18.5631" rotate="-77.816">i</tspan><tspan x="-18.142" y="17.76" fill="#FFFFFF" font-family="'HelveticaNeue'" font-size="18.5631" rotate="-67.444">t</tspan><tspan x="-16.584" y="12.935" fill="#FFFFFF" font-family="'HelveticaNeue'" font-size="18.5631" rotate="-51.127">e</tspan><tspan x="-10.697" y="5.977" fill="#FFFFFF" font-family="'HelveticaNeue'" font-size="18.5631" rotate="-35.323"> </tspan><tspan x="-7.095" y="3.258" fill="#FFFFFF" font-family="'HelveticaNeue'" font-size="18.5631" rotate="-23.219">•</tspan></text>
</svg>
