<?xml version="1.0" encoding="utf-8"?>
<!-- Generator: Adobe Illustrator 17.0.0, SVG Export Plug-In . SVG Version: 6.00 Build 0)  -->
<!DOCTYPE svg PUBLIC "-//W3C//DTD SVG 1.1//EN" "http://www.w3.org/Graphics/SVG/1.1/DTD/svg11.dtd">
<svg version="1.1" id="Layer_1" xmlns="http://www.w3.org/2000/svg" xmlns:xlink="http://www.w3.org/1999/xlink" x="0px" y="0px"
	 width="250px" height="150px" viewBox="0 0 250 150" enable-background="new 0 0 250 150" xml:space="preserve">
<g>
	<path fill="#FFFFFF" d="M22.209,84.277V71.878c0-0.733-0.234-1.333-0.7-1.8c-0.467-0.465-1.067-0.7-1.8-0.7h11.146
		c2.65,0,4.504,0.667,5.564,2c1.059,1.334,1.59,3.6,1.59,6.8v6.2v9v15.3c0,2.867,0.522,4.817,1.566,5.85
		c1.043,1.035,2.306,1.551,3.788,1.551c0.74,0,1.531-0.133,2.373-0.4c0.841-0.266,1.633-0.6,2.374-1c-0.334,0.2-0.684,0.4-1.05,0.6
		c-0.367,0.2-0.75,0.367-1.15,0.5c-1.935,0.935-3.867,1.65-5.8,2.15c-1.934,0.5-3.734,0.75-5.4,0.75c-1.734,0-3.35-0.232-4.85-0.7
		c-1.5-0.466-2.817-1.216-3.95-2.25c-1.135-1.032-2.035-2.383-2.7-4.05c-0.667-1.666-1-3.666-1-6v-13.8V84.277z M64.31,103.777v12.4
		c0,0.734,0.233,1.334,0.7,1.8c0.466,0.468,1.066,0.7,1.8,0.7h-11.2c-2.667,0-4.517-0.666-5.55-2c-1.035-1.333-1.55-3.6-1.55-6.8
		v-6.2v-19.4V71.878c0-0.733-0.25-1.333-0.75-1.8c-0.5-0.465-1.117-0.7-1.85-0.7h11.2c2.733,0,4.616,0.667,5.65,2
		c1.033,1.334,1.55,3.6,1.55,6.8v6.2V103.777z"/>
	<path fill="#FFFFFF" d="M90.109,116.178c0,0.734,0.233,1.334,0.7,1.8c0.466,0.468,1.065,0.7,1.8,0.7h-2.2H78.681h-4.672h-2.2
		c0.733,0,1.333-0.232,1.8-0.7c0.466-0.466,0.7-1.065,0.7-1.8v-44.3c0-0.733-0.234-1.333-0.7-1.8c-0.467-0.465-1.067-0.7-1.8-0.7
		h11.146c2.65,0,4.504,0.667,5.564,2c1.059,1.334,1.59,3.6,1.59,6.8V116.178z M90.509,73.378c0.334-0.266,0.684-0.483,1.053-0.65
		c0.369-0.166,0.721-0.35,1.055-0.55c4.081-1.866,7.862-2.8,11.344-2.8c1.672,0,3.277,0.234,4.818,0.7
		c1.539,0.467,2.861,1.217,3.965,2.25c1.104,1.035,1.992,2.367,2.66,4c0.668,1.634,1.004,3.617,1.004,5.95v27.7v6.2
		c0,0.734,0.234,1.334,0.701,1.8c0.465,0.468,1.064,0.7,1.799,0.7h-1.299h-8.4H98.01c0.732,0,1.35-0.232,1.85-0.7
		c0.5-0.466,0.75-1.065,0.75-1.8v-7.7v-29.1c0-2.866-0.539-4.816-1.615-5.85c-1.078-1.033-2.324-1.55-3.738-1.55
		C93.641,71.978,92.058,72.445,90.509,73.378z"/>
	<g>
		<path fill="none" d="M139.872,51.028c-1.556-1.566-3.428-2.35-5.614-2.35c-2.12,0-3.959,0.784-5.516,2.35
			c-1.556,1.567-2.334,3.417-2.334,5.55c0,2.2,0.778,4.067,2.334,5.6c1.557,1.534,3.396,2.3,5.516,2.3
			c2.187,0,4.059-0.766,5.614-2.3c1.557-1.533,2.336-3.4,2.336-5.6C142.208,54.445,141.429,52.595,139.872,51.028z"/>
		<path fill="#FFFFFF" d="M142,116.178v-12v-20.3v-12c0-0.733,0.337-1.522,0.804-1.989c0.466-0.465,1.169-0.889,1.904-0.889h-20.8
			c0.732,0,1.129,0.423,1.596,0.889c0.466,0.467,0.496,1.256,0.496,1.989v12.5v19.2v12.6c0,0.734-0.03,1.495-0.496,1.961
			c-0.467,0.468-0.863,0.861-1.596,0.861h20.8c-0.734,0-1.438-0.394-1.904-0.861C142.337,117.673,142,116.912,142,116.178z"/>
	</g>
	<path fill="#FFFFFF" d="M176.708,114.378c-1.535,1.067-3.335,2.05-5.4,2.95c-2.067,0.899-4.227,1.35-6.479,1.35
		c-1.722,0-3.346-0.232-4.869-0.7c-1.524-0.466-2.85-1.216-3.975-2.25c-1.127-1.032-2.021-2.365-2.683-4
		c-0.663-1.633-0.994-3.615-0.994-5.95v-27.7v-5.6c0-0.732-0.234-1.333-0.7-1.8c-0.467-0.466-1.067-0.7-1.8-0.7
		c1.932,0,3.939-0.315,6.026-0.95c2.088-0.633,3.992-1.483,5.714-2.55c1.723-1.065,3.197-2.3,4.422-3.7
		c1.226-1.4,1.938-2.866,2.138-4.4v11h6.4v0.6h-6.4v2.5v7.1v28.4c0,2.335,0.266,4.101,0.8,5.3c0.533,1.2,1.2,1.984,2,2.351
		c0.801,0.367,1.716,0.399,2.75,0.1C174.69,115.428,175.708,114.978,176.708,114.378z"/>
	<path fill="#FFFFFF" d="M208.407,120.777c0.065-0.066,0.1-0.234,0.1-0.5c0-1.066-0.534-1.6-1.6-1.6h-8.8l-6.4-18.8l-2.6-7.8
		l-7.101-20.9c-0.465-1.2-1.332-1.8-2.6-1.8h1.5h16.2h1.6c-1.067,0-1.6,0.534-1.6,1.6c0,0.135,0.016,0.234,0.05,0.3
		c0.033,0.067,0.05,0.134,0.05,0.2l12.5,36.7c0.266,0.734,0.766,1.1,1.5,1.1c0.601,0,1.101-0.365,1.5-1.1L208.407,120.777z
		 M195.107,145.279c-1.135,0.331-2.268,0.498-3.4,0.498c-1.667,0-3.25-0.398-4.75-1.193c-1.5-0.799-2.8-1.877-3.899-3.236
		c-1.101-1.362-1.966-2.938-2.601-4.729c-0.633-1.794-0.95-3.719-0.95-5.774c0-2.125,0.768-3.968,2.301-5.525
		c1.532-1.561,3.399-2.341,5.6-2.341s4.065,0.78,5.6,2.341c1.533,1.558,2.301,3.4,2.301,5.525c0,1.193-0.234,2.287-0.7,3.284
		c-0.468,0.995-1.101,1.857-1.9,2.589c-0.267,0.266-0.5,0.497-0.7,0.697c-0.199,0.198-0.399,0.431-0.6,0.696
		c-0.6,0.796-0.917,1.608-0.95,2.439c-0.034,0.828,0.101,1.607,0.4,2.339c0.3,0.729,0.732,1.326,1.3,1.792
		c0.565,0.464,1.183,0.697,1.85,0.697C194.473,145.378,194.84,145.345,195.107,145.279z M222.607,78.078
		c0.065-0.266,0.1-0.533,0.1-0.8c0-0.266,0-0.533,0-0.8c0-1.933-0.734-3.6-2.2-5c-1.467-1.4-3.167-2.1-5.1-2.1h17.9
		c-2.535,0-4.768,0.867-6.7,2.6C224.673,73.712,223.34,75.745,222.607,78.078z"/>
</g>
<g>
	<rect x="25" y="42" fill="none" width="222" height="101"/>
</g>
<circle fill="none" cx="134.32" cy="32.786" r="21.4"/>
<text transform="matrix(0.8049 -0.5934 0.5934 0.8049 117.7365 18.4223)"><tspan x="0" y="0" fill="#FFFFFF" font-family="'HelveticaNeue'" font-size="16.3044">p</tspan><tspan x="8.725" y="-0.097" fill="#FFFFFF" font-family="'HelveticaNeue'" font-size="16.3044" rotate="21.895">e</tspan><tspan x="16.08" y="2.679" fill="#FFFFFF" font-family="'HelveticaNeue'" font-size="16.3044" rotate="42.545">a</tspan><tspan x="21.975" y="7.859" fill="#FFFFFF" font-family="'HelveticaNeue'" font-size="16.3044" rotate="63.354">c</tspan><tspan x="25.654" y="14.838" fill="#FFFFFF" font-family="'HelveticaNeue'" font-size="16.3044" rotate="83.994">e</tspan><tspan x="26.305" y="22.8" fill="#FFFFFF" font-family="'HelveticaNeue'" font-size="16.3044" rotate="99.761"> </tspan><tspan x="25.757" y="26.718" fill="#FFFFFF" font-family="'HelveticaNeue'" font-size="16.3044" rotate="111.926">•</tspan><tspan x="23.847" y="31.487" fill="#FFFFFF" font-family="'HelveticaNeue'" font-size="16.3044" rotate="124.199"> </tspan><tspan x="21.565" y="34.862" fill="#FFFFFF" font-family="'HelveticaNeue'" font-size="16.3044" rotate="133.623">l</tspan><tspan x="19.853" y="37.346" fill="#FFFFFF" font-family="'HelveticaNeue'" font-size="16.3044" rotate="149.038">o</tspan><tspan x="12.637" y="41.734" fill="#FFFFFF" font-family="'HelveticaNeue'" font-size="16.3044" rotate="169.717">v</tspan><tspan x="5.509" y="43.238" fill="#FFFFFF" font-family="'HelveticaNeue'" font-size="16.3044" rotate="-170.251">e</tspan><tspan x="-2.336" y="41.707" fill="#FFFFFF" font-family="'HelveticaNeue'" font-size="16.3044" rotate="-154.253"> </tspan><tspan x="-5.973" y="40.098" fill="#FFFFFF" font-family="'HelveticaNeue'" font-size="16.3044" rotate="-142.447">•</tspan><tspan x="-10.039" y="36.971" fill="#FFFFFF" font-family="'HelveticaNeue'" font-size="16.3044" rotate="-130.282"> </tspan><tspan x="-12.847" y="34.296" fill="#FFFFFF" font-family="'HelveticaNeue'" font-size="16.3044" rotate="-114.152">u</tspan><tspan x="-16.334" y="26.953" fill="#FFFFFF" font-family="'HelveticaNeue'" font-size="16.3044" rotate="-92.77">n</tspan><tspan x="-16.473" y="18.606" fill="#FFFFFF" font-family="'HelveticaNeue'" font-size="16.3044" rotate="-77.704">i</tspan><tspan x="-15.918" y="15.527" fill="#FFFFFF" font-family="'HelveticaNeue'" font-size="16.3044" rotate="-67.272">t</tspan><tspan x="-14.545" y="11.309" fill="#FFFFFF" font-family="'HelveticaNeue'" font-size="16.3044" rotate="-50.953">e</tspan><tspan x="-9.373" y="5.222" fill="#FFFFFF" font-family="'HelveticaNeue'" font-size="16.3044" rotate="-35.164"> </tspan><tspan x="-6.176" y="2.825" fill="#FFFFFF" font-family="'HelveticaNeue'" font-size="16.3044" rotate="-23.033">•</tspan></text>
</svg>
